# xmcd
#
# Track frame offsets: 
#        150
#        22020
#        39592
#        58809
#        83076
#        96662
#        114344
#        130652
#        145406
#
# Disc length: 2127 seconds
#
# Revision: 0
# Processed by: cddbd v1.5.2PL0 Copyright (c) Steve Scherf et al.
# Submitted via: ExactAudioCopy v0.99pb4
#
DISCID=7c084d09
DTITLE=The Judds - Love Can Build a Bridge
DYEAR=1990
DGENRE=Country
TTITLE0=Born To Be Blue
TTITLE1=Calling In the Wind
TTITLE2=Rompin' Stompin' Blues
TTITLE3=Love Can Build a Bridge
TTITLE4=This Country's Rockin'
TTITLE5=One Hundred and Two
TTITLE6=In My Dreams
TTITLE7=Talk About Love
TTITLE8=Are the Roses Not Blooming
EXTD=
EXTT0=
EXTT1=
EXTT2=
EXTT3=
EXTT4=
EXTT5=
EXTT6=
EXTT7=
EXTT8=
PLAYORDER=
